<?xml version="1.0" encoding="utf-8"?>
<!-- Generator: Adobe Illustrator 25.0.0, SVG Export Plug-In . SVG Version: 6.00 Build 0)  -->
<svg version="1.1" id="katman_1" xmlns="http://www.w3.org/2000/svg" xmlns:xlink="http://www.w3.org/1999/xlink" x="0px" y="0px"
	 viewBox="0 0 3932.4 2631.1" style="enable-background:new 0 0 3932.4 2631.1;" xml:space="preserve">
<style type="text/css">
	.st0{fill-rule:evenodd;clip-rule:evenodd;fill:#FFFFFF;}
	.st1{fill:#F6D330;}
	.st2{fill:#FFFFFF;}
	.st3{fill-rule:evenodd;clip-rule:evenodd;fill:#BB2449;}
	.st4{fill-rule:evenodd;clip-rule:evenodd;}
</style>
<path class="st0" d="M716.2,65.6h2500v2500h-2500V65.6z"/>
<path d="M1152.7,2429.2c-82.4,0-157.4-33.6-211.8-87.8c-54.4-54.3-88.2-129.3-88.2-212.2V502c0-82.5,33.7-157.5,88.1-211.8
	c54.4-54.4,129.4-88.2,211.9-88.2h1627.1c82.5,0,157.5,33.8,212,88.3c54.3,54.4,88.1,129.4,88.1,211.8v1627.1
	c0,82.9-33.8,157.9-88.2,212.2c-54.4,54.3-129.3,87.8-211.8,87.8L1152.7,2429.2L1152.7,2429.2L1152.7,2429.2z"/>
<path class="st1" d="M910.6,1807.9h2111.3V502c0-66.6-27.2-127.2-71.1-171.1c-43.8-43.8-104.3-71.1-171-71.1H1152.7
	c-66.6,0-127.1,27.2-170.9,71.1c-43.9,43.9-71.1,104.5-71.1,171.1V1807.9z"/>
<path class="st2" d="M3021.9,1865.8H910.6v263.4c0,67,27.2,127.5,71,171.2c45.4,45.4,106.9,70.9,171.1,70.9h1627.1
	c64.2,0,125.7-25.5,171.1-70.9C3056.3,2195.2,3021.9,1997.2,3021.9,1865.8L3021.9,1865.8z"/>
<path class="st3" d="M1744.8,1974v-71.6h76.7v71.6H1744.8z M1505.3,643.7c18.6-14.6,30.9-21,52.7-30.2c24.5-10.2,39.7-14,66.3-16.7
	c-5.1-5.4-7.6-8.9-12-14.9c-4.3-5.8-6.9-9-10.6-15.1c21.3-3.1,16.5-1.5,54.1-10.6c46-10.4,61.9-30,119.1-31.5
	c64.8-1.6,71,20.9,117.5,27c35.7,4.7,56.2,5.2,92,4.5l-10.8,22.7c20.2,6,31.9,9.5,52.7,10.4c40.3,2.1,61.2-25.6,101-20.9
	c31.5,3.6,49.9,11.2,75.4,30.2c-17.8,4.4-30.1,4.4-45.3,13.5c-30.1,18-64,65.4-115.9,73.7c-61.8,10.6-97.8,9.1-156.7-4.5l7.5,19.6
	c-15.7-1.7-24.7-3-40.6-3.1c-45.1-0.1-69.4,17.9-114.4,16.7c-60.2-1.7-90.5-18-149.2-39.2c-17.2-5.9-30.5-0.6-48.3-7.4
	C1524.7,661.7,1516.8,655.5,1505.3,643.7z"/>
<path class="st4" d="M1918,2115.7c0.1-37.4,7.8-67.7,44.7-67.8c29.4,0.1,44.7,30.4,44.7,67.8h-0.2c0,37.2-15.1,67.5-44.7,67.5
	C1925.8,2183.2,1917.9,2152.9,1918,2115.7z M1376.1,2132.3l-39.7-114.8l-34.3,114.8H1376.1z M1257,2162.8l79.2-250.3l88,250.3H1257
	L1257,2162.8z M1229.2,2244.6l24.3-71.4h173.5l26.8,71.4h-38.3l-14-40.9h-121.2l-12.9,40.9H1229.2L1229.2,2244.6z M1344.1,1905.1
	h33.1l125.2,339.5h-38.3L1344.1,1905.1z M1180.7,2244.6h38.3l109.9-339.5h-33.4L1180.7,2244.6z M1679.6,2250.7v-85.4
	c-13.3,29.4-39.9,53.6-76.3,53.6c-61.3,0-85.7-46.1-85.7-103.1c0-57.2,27.1-103.7,85.4-103.7c38.7,0.1,63.8,23,76.7,53.6v-73.9
	h-31.8v16.6c-15.6-14.6-36.6-21.6-63.7-21.6c-70.1,0-99.5,57.7-99.5,128.9c0,71,29.4,128.9,99.5,128.9c27.6,0,48.1-8,63.7-23v29.4
	c0,14.7-15.2,26.8-39.3,26.8c-26.9,0-39.7-12.2-39.7-26.8l-30.9-0.2c0,27.5,24.9,52.4,71.4,52.4
	C1655.6,2303.1,1679.6,2278.3,1679.6,2250.7L1679.6,2250.7z M1689.7,2250.7v-259h32.2l0.2,259.2c0,47.2-33.3,85.6-112.5,85.6
	c-79,0-112.4-38.4-112.4-85.6l30.3-0.2c0,32.9,29,62.7,82.4,62.7C1663.5,2313.4,1689.7,2283.7,1689.7,2250.7L1689.7,2250.7z
	 M1647.8,2115.7c0.1,37.2-7.5,67.5-44.6,67.5c-29.4,0-44.6-30.3-44.6-67.5h-0.2c0-37.4,15.3-67.7,44.7-67.8
	C1640.3,2048,1647.7,2078.3,1647.8,2115.7z M1527.5,2115.5c0,51.6,21.7,93.2,75.4,93.2c48.9,0,75.3-41.6,75.3-93.2
	c0-51.5-24-93.2-75.3-93.2C1554,2022.3,1527.5,2064,1527.5,2115.5L1527.5,2115.5z M1788.3,2242v-250.3h33.2V2242H1788.3z
	 M1744.8,2242v-250.3h33.3V2242H1744.8z M1876.3,2323.3l-0.2-331.6h-32.2l0.2,331.7L1876.3,2323.3L1876.3,2323.3z M1886.4,2323.3
	v-158c13.1,29.4,39.9,53.6,76.1,53.6c61.3,0,85.9-46.1,85.9-103.1c0-57.2-27-103.7-85.5-103.7c-38.7,0.1-63.8,23-76.5,53.6v-73.9
	h31.5v16.6c15.7-14.6,36.8-21.6,63.9-21.6c70.3,0,99.7,57.7,99.7,128.9c0,71-29.4,128.9-99.7,128.9c-27.5,0-48.1-8-63.9-23
	l0.4,101.9L1886.4,2323.3L1886.4,2323.3z M2038.3,2115.5c0-51.5-26.4-93.2-75.3-93.2c-51.2,0-75.4,41.7-75.4,93.2
	c0,51.6,26.4,93.2,75.4,93.2C2016.7,2208.7,2038.3,2167,2038.3,2115.5z M1560.9,432.7c6.1-1.5,8.4-1.5,13.6-0.7
	c6.7,1.5,6.7,5,7.5,9.9l21.3,93.3c-0.3,1.6-0.8,3.1-1.6,4.5c-2.3,3.8-3.1,2.3-9.8,5.4l-12.8,5.2c-1.3,1.1-2.1,1.8-3.1,3.1
	c-2.2,2.9-4.4,5.6-3.1,9.1l-2.9,15.1c2.9,4-4.2,9-9.2,9c-3.3,0-6-2.7-5.9-6c0,0,0-0.1,0-0.1l-5.9-9.1c-0.4,2.7-3.7-3.7-6.1-2.9
	c-2.6,0.6-5.2,4.6-3.1,6l-2.8,18c2.3,4.4-4,9-9,9c-3.4,0-5.5-2.6-6.1-5.9l-6-9c-0.5-1.6-1.5-3.8-3-3.1c-1,0.6-1.9,0.1-2.9,0
	l-54.4,27.2c-2,1.3-3.1,3.6-2.9,6c0.1,2.3,1.2,4.5,2.9,6l35.5,70.1c0.4,4.2,3.2,6.2,6.9,8.3c3.3,1.7,5.2,2.9,9,2.9l57.1,9.1l9.1-9.1
	c-1-2.3,3.7-3.9,6.1-2.9c2.3,0.9,4.4,3.9,2.8,5.9l-2.8,39.3c-0.2,2.5-1.6,4-3.1,5.9c-2.3,3-5.5,4.6-9,3.1l-78.2-12
	c-3.8,0.1-5.8-1.4-9.2-3.1c-4.6-2.1-7.3-3.7-10.5-7.5l-25.7-28.6c-0.9-2-4.9-2.1-5.9,0c-1,2.6-1.1,5.2,0.8,6.8
	c9.6,14.8,14.4,23.4,23.4,38.3c12.5,20.9,10.8,39.9,30.1,54.4c15.7,11.8,28.5,15.7,48.1,15c-14,15.6-27.2,22.3-48.1,24.1
	c-32,2.7-52-14.4-72.3-39.1c-0.5-3.3-5.5-3.3-8.2-1.6c-2.7,1.6-0.7,6.6,2.1,7.4c10,13.7,14.6,17,18.2,30.3c4.3,15.9,2.5,26.6-3,42.2
	c-13.9-6.6-21.7-10.3-36.1-15.2c-13.8-4.4-22-5.8-36.2-9c-12.2,7.1-17.7,13.4-27.2,24.1c-17.1,19.4-22.6,34.8-27,60.3
	c-9.8-4.5-16-8.3-21.9-16.6c-15-18.8-4.6-42.3,6.7-80c2.1-2.1-4.4-7.3-1.4-7.5c3.5-0.2-8,1.1-7.7,4.6c-12.6,33.9-14.1,46-24.2,60.2
	c-18.8,27.8-38.9,41.3-72.2,48.3c7.9-14.5,12-23.2,15.1-39.3c3.6-19.6-4-31.6,0-51.2c4.7-24,10.3-38.3,25.5-57.2
	c2.9-1.9,3.5-6.4,1-8.3c-2.7-2-8.4-1.2-8.4,2.2c-11.9,14.2-18.8,24.1-36,30.1c-15.6,5.4-26.8,5.8-42.2,0
	c15.9-10.8,23.8-20.9,30.1-39.3c7.7-22.1-8.1-37.2-3.1-60.2c4.4-20.1,9.1-31.6,21.1-48.2c-14.4,5.1-24.9,2.8-39.2-2.9
	c-13.8-5.8-21-13.4-27-27.2c19.2-8,29.7-14.6,45.1-28.7c17.7-16.1,21.1-33.1,36.2-49.7c13.4-15.1,31.3-20.9,54.1-24l-21.1-120.5
	l111.6,78.3c2.1,1.6,3.4,3.2,6.1,3.1C1353.8,507.9,1560.9,432.7,1560.9,432.7L1560.9,432.7z M2648.3,1150.6
	c22.4,10.7,54.5,21.9,54.5,21.9c6.5,0.6,10.4,0.9,16.7,1.5c-3.3,4.1-3.4,7.5-6.1,12.1c-2.8,5.6-2.7,9.7-6,15
	c7.7,4.3,12.5,6.8,21.3,7.5c8.7,0.8,13.8-0.5,22.5-3.1c0.2-11.1-2.3,18.3-9.1,27.2c-5.7,7.7-10.7,11.1-19.8,15
	c-2.3-0.6-4.7,2.1-4.4,4.6c0.4,2.8,3.1,4.8,6.1,4.5c10.2,0.8,16.6,1.5,25.5,6c10.9,5.4,16.7,10,24.1,19.6
	c-7.1-0.5-11.7-1.6-18.2,1.6c-4.2,2.1-7.7,2.2-10.4,6c-3.5-0.1-7.8,1-7.5,4.5c0.2,3.7,2.1,8.2,6,7.5c6,3.3,9.8,4.7,14.9,8.9
	c6,4.7,8.9,7.9,13.7,13.6c-4.8,8-6.9,13.1-13.7,19.6c-6.8,6.8-11.1,10.5-19.5,15.1l28.6,69.4c10.3,0.3,16.5,1.5,25.7,6
	c10.5,5,15.1,10.6,22.6,19.5c-5.6,7.3-9,11.5-16.7,16.6c-7.7,5.1-11.9,8.8-20.9,10.5l-1.7,58.8c-1.1,5-1.9,8.5-6,12
	c-4.6,4.3-8.6,5.8-15.1,6.1l-93.3,15c-6-1.2-10.6-4.5-11.9-10.6c-1.5-6.6,0-13.1,6-16.5l67.8-67.8c3.1-3.1,4.6-6.1,4.6-10.6
	c-0.4-5.3-3.4-7.5-6.4-12c-19.5-31.8-37.5-44.7-58.6-75.3c-24.1-35.2-32-58.9-57.1-93.4c-2.8-3.9-3.9-6.5-7.7-9.2
	c-5.2-3.8-10-2.7-16.5-4.4c-39.2-10.7-58.7-6-102.4-18.2l-135.5-36.1l7.5,39.1c0.6,3.4,1.7,5.6,4.6,7.7c2.7,1.9,5.1,1.2,9,1.5
	c7-1,8.3-1.5,17.9,0c11.5,2.3,15.9,6.8,30.2,8.9c9.1,1.5,15,0.7,24.2-1.5c0,12.6-4.4,20.2-12.1,30.2c-5.7,7.2-9.5,11.6-18.2,15.1
	c-2.7,0.9-6,1.6-6,4.5c0,2.5,2.1,4.6,4.7,4.5c4.7,0,7.4,1.3,12,3c6.5,2.6,9.6,6,14.9,10.6l-22.6,9.1c-4.4,4.4-7,1.7-6,4.4
	c0.7,2.7,1.9,3.9,3.6,6c5.3,6.8,7.7,12.8,15.9,15.1c-3.9,2.9-5.7,4.9-9.8,7.5c-10.3,6.8-19,8.3-28,15c-1.4,1.4-1.5,3.4-2.3,6
	l3.9,58.7c0.2,5.1-1.8,7.9-4.6,12.1c-2.3,3.9-4.6,6.1-9,7.5l-97.8,18.2c-4.6,0-8.6-0.5-10.6-4.5c-3.1-6.5,1.5-9.9,7.5-16.7
	l57.3-79.9c3.3-3.6,4.8-7,4.5-12c-0.2-2.6-0.7-5.2-1.6-7.6c-12.6-24-23.7-36-42.7-55.6c-18.2-18.8-29.5-26.4-52-42.2
	c-3.1-1.6-5.6-3.9-7.7-7.6c-3.9-6.6,1.5-13.5-1.5-19.5c-11.3-17.4-16.3-24.5-22.6-42.2c-0.8-2.3,0.7-5-1.4-6c-4.2-1.8-5.5,4.6-9,7.6
	c-16.9,13.5-35.7,32.4-36.3,42.1c-1.5,10.6,0,15.2,15,24.1c6.9,4.6,21.3,3.1,34.7,1.6c-2.4,7.3-5.8,10.5-10.6,16.5
	c-5.9,7.6-10.9,10.6-19.5,15.1c6.9-0.6,10.9,0.4,18,0.7c5.9,0.3,9,0,15.1,0.7c-9.2,7.6-21.1,17.5-21.1,24.1c0,9.2,14.9,10.6,27,24.1
	c-18,1.6-24.1,9.9-33.2,19.7c-12,12.7-18.4,7.6-22.4,18c-1.4,3.4-1.4,5.6-1.5,9.1l-1.6,75.2c-1.9,4.4-2.3,7.7-6.1,10.6
	c-4.4,3.4-7.8,5-13.6,4.5l-108.3,1.4c-3.6,0.5-8.1-2.3-7.5-5.9c0.6-3.9,0.6-9.3,4.6-9.1l75.2-82.9c2.3-2.7,1.8-5.4,1.6-9.1
	c-0.4-3.4-1.6-5.9-4.6-7.5c-19.7-22-30.3-35.4-46.8-60.2c-17.4-26.8-25.7-43-39.1-72.3c-7-0.6-11.2,1-18,3
	c-7.8,2.3-11.2,6.1-18,10.6c-3.3,0-5.6,2.7-6.2,5.9c-0.4,3-0.4,5.4,1.8,7.6c4.8,4.8,8.5,6.7,14.9,8.8c8.4,3.1,14,4.7,22.6,3.1
	c-1.7,12.3-5.1,19.6-13.6,28.7c-10.9,11.8-21.6,16.4-37.7,16.5c3.1,3.1,5.2,4.5,9,6.1c4.7,1.7,7.3,3.1,12.3,3.1
	c-9.8,11.1-18.1,15.4-31.6,21c-15.9,6.4-26.8,6.9-43.7,4.6c1.7,0.4-3.5,0.1-4.6,1.4c-2.1,2.5,4.4,8.9,5.9,6
	c3.8,2.6,6.6,3.1,10.8,4.6c6.1,1.9,10,1.5,16.5,1.5c-5.9,11.1-12.7,16.1-24.1,21.1c-12.8,5.8-22.2,4.6-36.2,1.5
	c-2.3-2.6-8.6-2.2-9,1.4c-0.2,2.7,0.6,5.3,3.1,5.9c7.6,2.7,12.3,5.6,16.7,12.2c4.9,7.2,7.3,29.9,7.5,21.1c-3-0.7-6.1-0.7-9,0
	c-6.7,1.2-10,4.2-16.7,6c-13,3.6-21,5-34.5,3c1.9,5,1.9,8.3,1.6,13.5c-0.8,5.8-2,9.5-5.9,13.5l-30.3,52.8c-2.3,3-5.2,4.2-9,4.5
	c-5.4,0.4-10-1.2-12.1-6l-66.3-46.7c-1.7-3.1-3.1-5.3-3.1-9c0.2-4.3,2.1-8.3,6.2-9.1l81.4-51.1c0,0,9.1-7.6,15-36.2l37.8-125.1
	c-1.4,3.4,1.1-6.9-1.7-9c-2.7-2.3-6.6-2.7-9.1,0c-26.1,3.3-41.2,4.3-67.9,4.4c-29.3,0.2-46-0.7-75.1-4.4l-12.1,49.6
	c7.3,2.2,11.1,4.5,18.1,7.5c6.1,2.7,9.3,4.4,15.1,7.6c-3.2,11.1-7.5,16.9-15.1,25.6c-8.7,9.8-14.8,15.3-27.1,19.6
	c-3.8-0.1-7.9,2.2-7.7,6c0.4,2.7,0.8,4.9,3.1,6.1c3.3,5.2,6.1,7.5,10.5,12c6.9,6.8,12.1,9.7,21.1,13.4c-8.8,5.3-14.2,8.3-24,10.7
	c-7.5,1.7-12.1,1.2-19.6,1.4c-3.1,0-5.6,1.6-6.1,4.5c-0.5,3.2,0.4,5.8,3,7.5c7,1.4,10.8,3.6,16.6,7.6c10.5,6.9,16.3,13.4,19.8,25.6
	c-16.7,3-16.7,1.5-42.2,15c-6.9,3.9-14.4-4-19.8,1.5c-2.7,2.9-4.4,5.1-4.4,9.1l-25.7,55.8c-1.3,4.1-5,5-9.2,6
	c-5.2,1.4-9.6-0.4-13.4-4.5l-58.7-45.3c-2.3-3.5-1.9-6.4-1.6-10.4c0.5-5.2,3.3-7.9,7.5-10.7l43.7-28.7c7-8.4,13.4-13.4,14.9-24.1
	c4.7-31.6-19.2-55.1-25.4-91.9c-4.7-26.3-6.7-41.3-7.5-67.8c-16.3-3.1-25.3-6-40.9-12.1c-15.4-6-23.4-10.9-37.6-19.5
	c-0.7,3.8-5.8-6.9-9-4.6c-3.4,2.6,1.6,13.3-1.5,10.6l1.5,28.7c0.2,2.8,2.3,4,4.4,5.9c2.3,2,4.6,1.6,7.7,1.6c8.5-2.6,14-2.2,22.6,0
	c14.6,3.5,22.8,10.8,30.1,24c-9.9,2.9-15.1,6.4-22.6,13.4c-9,8.4-13,14.4-18,25.7c-2.6,2.7-3.9,5.4-3,9c0.6,3.6,3.8,6.2,7.4,6.1
	c5.4,1.3,8.5,2.4,13.6,4.4c9.2,3.7,14,7.1,22.6,12.1c-3.2,6.9-6.5,10.1-10.5,16.5c-6.5,10.2-15.1,13.5-19.5,24.1
	c-1.5,3.8,1.3,5.7,2.9,9c3.5,7.4,8.6,11.1,16.7,12.1c-7.6,10.6-6,13.5-15.1,22.6c-5.9,6-11.1,8.4-19.5,10.5
	c-3.3,0.9-4.6,4.1-4.4,7.5c0,3.4,1.1,6.8,4.4,7.5l16.7,18c-8.3,3.7-12.7,6.5-19.6,12c-12.8,10.4-13.2,22.8-25.7,33.2
	c-11.3,9.5-23.4,7-33.2,18.1c-4.6,5-6.1,8.8-9,15l-15.2,75.5c0.2-9-2.5,14.8-9,21c-7.3,7-14,9.3-23.9,9h-75.6
	c-6.7,0-11.3,0.7-13.4-4.6c-1.5-2.9,0-3.7,4.4-10.5c57.4-68.5,49.1-55.6,75.4-90.4c7.5-10.4,10.7-19.4,12.1-33.1
	c1.2-11.9-1.9-18.4-2.8-30.2c-9.4-99-32.4-152.9-63.5-247c-14.6-43.7-30.2-79.1-42.2-113.8c-15.3-44.4-24.6-87.6-18-145.4
	c4-34.7,21-87.4,21-87.4c4.7,12.1,9.2,18.1,18,27.1c9.6,9.8,17.1,14,30.1,18.1c4.9-21,10.2-32.6,21.1-51.2
	c10-16.6,16.8-25.4,30.3-39.2c14.2,4.3,22,7.1,36,12.2c15.6,5.3,23.6,9.9,39.1,14.9c6.7-8.1,9.6-13.9,12.1-24.1
	c2.7-10.1,2.7-16.8,0-27.1c22.6,11.3,38.4,14.9,63.4,12.1c31.7-3.7,52-14.2,72.1-39.2c5,21.8,6.4,35.2,3.1,57.2
	c-2.8,19.6-6.7,31-16.5,48.3c-3.8,1.4-3.8,8.8,0,10.6c2.3,1,4.4-1,5.9-3.1c17.2-10.2,26.3-16.7,42.2-28.5
	c17-12.7,26.6-20.2,42.1-34.7c6.9,17,7.9,28.4,6.1,46.6c-2.1,18.7-5.7,29.9-16.5,45.2c-1.5,1.9-2,4.6,0,6c1.7,1.5,4,1.4,5.9,0
	c20.6-2.5,33.2-9.9,46.7-25.6c9.8-11.4,7.5-22.8,16.7-34.6c7.5-10,13.4-14.7,24-21.2c-4.6,12.6-2.9,16.6-1.6,34.7
	c0.8,13.5,7,25,18.2,32.4c0,0,1.6,2.6,2.9,2.2c1.1-0.1,2.5,0,2.5-1.4c2.1-13.5,5.4-20.6,12.9-31.6c7.4-11.5,14.4-16.8,27-22.6
	c0,13.4,3.3,21.5,10.3,33.1c6.9,10.8,11.5,17.3,24.1,21.8c0,0.7,4.2,0.7,3.1,0.7c-1.1,0.3,1.6-2.2,1.6-2.2
	c3.6-12.7,7.6-19.7,16.5-29.3c8.8-9.6,15-15.4,27.2-19.6c-1.1,15.7,3.1,25.3,10.6,39.1c5.7,10.6,11.1,15.6,20.9,22.6
	c1.9,1.6,4.6,1.6,6.1,0c1.4-1.1,0.8-2.9,0-4.5c-2.7-17.7-2.3-29.5,6.1-45.2c5-9.6,9.4-14.6,18-21.1c4.4,12.8,6.5,20.3,13.4,31.7
	c7,11.2,11.4,17.5,21.3,26.3c-0.4,2.5,4.6,3.6,5.9,1.5c1-1.2,1.8-2.6,0.8-3.7c-2.3-18.1-6-27.9,2.3-45.1c6.7-14.3,8.8-12.6,16.5-18
	c1.2,13.7,8.7,22.9,21.3,28.5c11.6,5.3,21.7,6.1,32.4-2.3c0,0,3.2-3.6,2.8-2.1c-0.7,2.3-3.8-3.7-4.6-4.5
	c-26.3-25.7-33.9-75.4-7.5-101.7c26.3-26.3,66.3-30.9,92.6-4.5c12.8,12.8,12,36.1-0.8,48.9c-12.6,13.5-34.7,13.5-47.3,0
	c-5.3-6.1-3.9-12.9-3.9-12.9c1.4-0.6,1.5-3.3,0-3.8c-1.7-0.5-3.8,0.6-3.8,2.3c-2.1,5.4-1.5,9.2-1.4,15.1c0.4,18,12.7,30.8,32.9,32.4
	c30.3,2.9,64.2-26.5,73.8-60.3c18.2-61.7,54.5-204.9,186.9-203.5c82.8,1.5,140,58.8,140,134.1c0.2,4.1,0,10.6,0,10.6
	c0,50.4-29.9,87.4-61.8,102.6c43.9,34.5,65,48,99.5,112.8c27.8,52.8,36.2,85.9,57.2,131.1c6.1,13.6,8.4,26.4,21.3,33.2
	C2641.2,1147.1,2644.6,1148.8,2648.3,1150.6L2648.3,1150.6z M2461.8,762c0.2-2.2,0-6.8,0-6.8c1.5-43.7-38.7-70.3-81.2-73.8
	c-45.5-3.7-69.3,18-96.5,66.2c-20.8,37.7-28.6,63.4-49.6,100.9c-12.9,22.7-19.6,28.7-43.7,51.2c-2.5,0.8-4.4,3.8-3,6.1
	c1.7,2.4,6.1,4.2,7.4,1.5c34.1-8.1,53.1-18.4,79.9-40.8c21.9-18,33-30.8,46.8-55.5c-1.7-1.7-0.6-4.9,1.5-6.1c2.5-1.7,6.2,0.1,7.5,3
	c15.8,20.5,34.5,27.7,60.2,27.1C2430.9,834.1,2460.3,801.1,2461.8,762L2461.8,762z M1382.6,575.8c5.1,9.9,18.7,13.5,29.3,8.3
	c9.8-5.9,13.4-18.8,7.5-28.6c-5.5-9.7-17.6-13.3-27.5-8.2C1381.9,552.5,1377.2,565.4,1382.6,575.8L1382.6,575.8z"/>
</svg>
